<svg xmlns="http://www.w3.org/2000/svg" xmlns:xlink="http://www.w3.org/1999/xlink" version="1.1" id="Glyphs_-_Web" x="0px" y="0px" viewBox="0 0 40 40" enable-background="new 0 0 40 40" xml:space="preserve" height="100px" width="100px">
<path id="Ban_1_" fill-rule="evenodd" clip-rule="evenodd" d="M20,7.5C13.1,7.5,7.5,13.1,7.5,20c0,6.9,5.6,12.5,12.5,12.5  S32.5,26.9,32.5,20C32.5,13.1,26.9,7.5,20,7.5z M10.5,20c0-5.2,4.3-9.5,9.5-9.5c2.1,0,4,0.7,5.6,1.8L12.3,25.6  C11.2,24,10.5,22.1,10.5,20z M20,29.5c-2.1,0-4-0.7-5.6-1.8l13.3-13.3c1.1,1.6,1.8,3.5,1.8,5.6C29.5,25.2,25.2,29.5,20,29.5z"/>
</svg>